<svg width="15" height="15" viewBox="0 0 15 15" fill="none" xmlns="http://www.w3.org/2000/svg">
    <circle cx="7.5" cy="7.5" r="7" fill="#27282A" stroke="#27282A" />
    <path
        d="M5.00447 8.16505C4.89412 8.05169 4.74446 7.98801 4.5884 7.98801C4.43235 7.98801 4.28269 8.05169 4.17234 8.16505C4.06199 8.2784 4 8.43214 4 8.59244C4 8.75275 4.06199 8.90649 4.17234 9.01984L5.93035 10.8257C5.98511 10.8815 6.05005 10.9257 6.12145 10.9556C6.19284 10.9856 6.26929 11.0008 6.34642 11.0003C6.42664 10.9977 6.50548 10.9782 6.57806 10.943C6.65064 10.9078 6.71541 10.8576 6.76834 10.7957L10.8704 5.9799C10.9651 5.8591 11.0108 5.70541 10.9979 5.55087C10.985 5.39632 10.9145 5.25286 10.8011 5.15039C10.6878 5.04792 10.5403 4.99436 10.3894 5.00086C10.2386 5.00736 10.096 5.07344 9.99136 5.1853L6.34642 9.51948L5.00447 8.16505Z"
        fill="#0DC7B1" />
</svg>
